<?xml version="1.0" encoding="UTF-8"?>
<svg id="Capa_2" data-name="Capa 2" xmlns="http://www.w3.org/2000/svg" viewBox="0 0 90.89 89.09">
  <defs>
    <style>
      .cls-1 {
        fill: #326bd8;
      }

      .cls-2 {
        fill: #fff;
      }
    </style>
  </defs>
  <g id="Capa_1-2" data-name="Capa 1">
    <g>
      <path class="cls-2" d="M83.69,73.59c0,6.16-5.02,10.76-11.03,10.76H13.86c-3.99,0-7.37-1.87-9.38-5.08-1.71-2.74-1.63-5.4-1.63-8.54l.09-54.76c0-2.77.72-5.39,2.56-7.43,1.98-2.2,5.01-3.91,8.19-3.91l60.07-.06c5.38.84,9.83,4.75,9.86,10.29l.08,17.44-.02,7.34c0,3.36.02,6.58.02,9.97l.02,23.98Z"/>
      <path class="cls-1" d="M79.65,88.95l-66.2.14c-6.85.01-13.35-4.5-13.36-11.78l-.08-66.63C1.2,4.7,5.65,0,11.95,0l67.08.03c6.1,0,11.81,5.06,11.81,11.29l.05,66.3c0,6.12-5.34,10.57-11.24,11.32ZM35.84,53.84c.06-7.13-8.2-8.31-6.52-16.36,1.01-4.83-2.53-5.11-1.94-6.8.1-.3.88-.26,1.3-.57.82-.6.87-2.45-.09-3.07-.27-.18-.94-.2-.93-.61.02-1.51,6.41-5.34,9.54-6.94,1.01-.19,2.56.5,3.65-.28.85-.61,1.02-3.39-.09-3.92-1.48-.7-3.25-.38-4.81-.41l-11.05-.21c-5.34-.1-9.35,6.22-8.25,7.74.65.9,3.14.2,4.17,1.44.44.53,1.07,1.88.84,2.61-.9.66-1.41,1.09-1.49,2.26-.06.91.73,1.38,1.1,2.03.56,1-1.12,1.47-1.4,1.99-2.5,4.6-4.57,9.39-5.07,14.68-.66,7-.31,13.78-.17,20.76.04,2.01,1.59,3.84,3.64,3.85l13.67.04c2.23,0,3.76-1.89,3.77-3.97l.12-14.25ZM34.79,22.39l-3.23,2.14c1.01,3.06,3.51,6.91,5.67,6.54,1.89-.33-1.62-4.24-2.44-8.68ZM58.51,37.64l1.99,17.67c.21,1.9,1.32,3.14,3.34,3.05l7.01-.32c.83-.04,1.63-.01,2.18-.46.43-.35.84-1.21.76-2.03-.59-6.29-1.22-12.4-2.85-18.46-.56-2.08-1.91-4.32-4.14-4.33l-9.29-.07c-1.8-.01-3.3.81-4.46,2.02l-12.56.04c-1.47,0-2.82.81-3.16,2.07-.32,1.18-.31,2.81.94,3.57,1.42.87,3.14,1.13,4.83,1.14l13.32.09-.52-5.54c.15-.47,1.49-.5,1.85-.19.32.27.66.95.75,1.76ZM76.05,58.14c1.12.71,3.32.05,3.27-.91-.37-6.77-1.34-13.37-3-19.91-.57-2.25-1.94-4.34-4.53-4.15,1.02,1.95,1.66,3.64,2.1,5.59,1.26,5.55,1.96,11.08,2.42,16.8l-.26,2.59ZM68.63,60.65l-4.81.24c-3.35.25-5.62-2.05-5.96-5.22l-1.23-11.39-14.41-.22-3.64-.78c-1.06-.23-1.74-.95-2.49-1.78-1.35,1.36-.92,3.18.5,3.92l2.09,1.1,2.8,21.54c.27,2.09,1.65,3.92,3.93,4.24,5.94.82,11.99.75,17.96.06,2.12-.24,3.61-1.91,3.94-3.82l1.34-7.9Z"/>
    </g>
  </g>
</svg>